<?xml version="1.0" encoding="UTF-8"?>
<!DOCTYPE svg PUBLIC "-//W3C//DTD SVG 1.1//EN" "http://www.w3.org/Graphics/SVG/1.1/DTD/svg11.dtd">
<svg width="160mm" height="90mm" viewBox="0 0 16000 9000" version="1.1" xmlns="http://www.w3.org/2000/svg" xmlns:xlink="http://www.w3.org/1999/xlink" stroke-width="28.222" stroke-linejoin="round" xml:space="preserve">
 <path fill="rgb(255,255,255)" stroke="none" d="M 8000,8999 L 0,8999 0,0 15999,0 15999,8999 8000,8999 Z"/>
 <path fill="none" stroke="rgb(179,179,179)" stroke-linejoin="round" d="M 6438,8172 L 941,8172 941,2337 11934,2337 11934,8172 6438,8172 Z"/>
 <path fill="none" stroke="rgb(179,179,179)" stroke-linejoin="round" d="M 11934,8171 L 941,8171"/>
 <path fill="none" stroke="rgb(179,179,179)" stroke-linejoin="round" d="M 11934,7198 L 941,7198"/>
 <path fill="none" stroke="rgb(179,179,179)" stroke-linejoin="round" d="M 11934,6225 L 941,6225"/>
 <path fill="none" stroke="rgb(179,179,179)" stroke-linejoin="round" d="M 11934,5253 L 941,5253"/>
 <path fill="none" stroke="rgb(179,179,179)" stroke-linejoin="round" d="M 11934,4281 L 941,4281"/>
 <path fill="none" stroke="rgb(179,179,179)" stroke-linejoin="round" d="M 11934,3308 L 941,3308"/>
 <path fill="none" stroke="rgb(179,179,179)" stroke-linejoin="round" d="M 11934,2336 L 941,2336"/>
 <path fill="none" stroke="rgb(179,179,179)" stroke-linejoin="round" d="M 941,8321 L 941,8171"/>
 <path fill="none" stroke="rgb(179,179,179)" stroke-linejoin="round" d="M 941,8321 L 941,8171"/>
 <path fill="none" stroke="rgb(179,179,179)" stroke-linejoin="round" d="M 1786,8321 L 1786,8171"/>
 <path fill="none" stroke="rgb(179,179,179)" stroke-linejoin="round" d="M 1786,8321 L 1786,8171"/>
 <path fill="none" stroke="rgb(179,179,179)" stroke-linejoin="round" d="M 2632,8321 L 2632,8171"/>
 <path fill="none" stroke="rgb(179,179,179)" stroke-linejoin="round" d="M 2632,8321 L 2632,8171"/>
 <path fill="none" stroke="rgb(179,179,179)" stroke-linejoin="round" d="M 3478,8321 L 3478,8171"/>
 <path fill="none" stroke="rgb(179,179,179)" stroke-linejoin="round" d="M 3478,8321 L 3478,8171"/>
 <path fill="none" stroke="rgb(179,179,179)" stroke-linejoin="round" d="M 4323,8321 L 4323,8171"/>
 <path fill="none" stroke="rgb(179,179,179)" stroke-linejoin="round" d="M 4323,8321 L 4323,8171"/>
 <path fill="none" stroke="rgb(179,179,179)" stroke-linejoin="round" d="M 5169,8321 L 5169,8171"/>
 <path fill="none" stroke="rgb(179,179,179)" stroke-linejoin="round" d="M 5169,8321 L 5169,8171"/>
 <path fill="none" stroke="rgb(179,179,179)" stroke-linejoin="round" d="M 6015,8321 L 6015,8171"/>
 <path fill="none" stroke="rgb(179,179,179)" stroke-linejoin="round" d="M 6015,8321 L 6015,8171"/>
 <path fill="none" stroke="rgb(179,179,179)" stroke-linejoin="round" d="M 6860,8321 L 6860,8171"/>
 <path fill="none" stroke="rgb(179,179,179)" stroke-linejoin="round" d="M 6860,8321 L 6860,8171"/>
 <path fill="none" stroke="rgb(179,179,179)" stroke-linejoin="round" d="M 7706,8321 L 7706,8171"/>
 <path fill="none" stroke="rgb(179,179,179)" stroke-linejoin="round" d="M 7706,8321 L 7706,8171"/>
 <path fill="none" stroke="rgb(179,179,179)" stroke-linejoin="round" d="M 8551,8321 L 8551,8171"/>
 <path fill="none" stroke="rgb(179,179,179)" stroke-linejoin="round" d="M 8551,8321 L 8551,8171"/>
 <path fill="none" stroke="rgb(179,179,179)" stroke-linejoin="round" d="M 9396,8321 L 9396,8171"/>
 <path fill="none" stroke="rgb(179,179,179)" stroke-linejoin="round" d="M 9396,8321 L 9396,8171"/>
 <path fill="none" stroke="rgb(179,179,179)" stroke-linejoin="round" d="M 10242,8321 L 10242,8171"/>
 <path fill="none" stroke="rgb(179,179,179)" stroke-linejoin="round" d="M 10242,8321 L 10242,8171"/>
 <path fill="none" stroke="rgb(179,179,179)" stroke-linejoin="round" d="M 11088,8321 L 11088,8171"/>
 <path fill="none" stroke="rgb(179,179,179)" stroke-linejoin="round" d="M 11088,8321 L 11088,8171"/>
 <path fill="none" stroke="rgb(179,179,179)" stroke-linejoin="round" d="M 11934,8321 L 11934,8171"/>
 <path fill="none" stroke="rgb(179,179,179)" stroke-linejoin="round" d="M 11934,8321 L 11934,8171"/>
 <path fill="none" stroke="rgb(179,179,179)" stroke-linejoin="round" d="M 941,8171 L 11934,8171"/>
 <path fill="none" stroke="rgb(179,179,179)" stroke-linejoin="round" d="M 791,8171 L 941,8171"/>
 <path fill="none" stroke="rgb(179,179,179)" stroke-linejoin="round" d="M 791,8171 L 941,8171"/>
 <path fill="none" stroke="rgb(179,179,179)" stroke-linejoin="round" d="M 791,7198 L 941,7198"/>
 <path fill="none" stroke="rgb(179,179,179)" stroke-linejoin="round" d="M 791,7198 L 941,7198"/>
 <path fill="none" stroke="rgb(179,179,179)" stroke-linejoin="round" d="M 791,6225 L 941,6225"/>
 <path fill="none" stroke="rgb(179,179,179)" stroke-linejoin="round" d="M 791,6225 L 941,6225"/>
 <path fill="none" stroke="rgb(179,179,179)" stroke-linejoin="round" d="M 791,5253 L 941,5253"/>
 <path fill="none" stroke="rgb(179,179,179)" stroke-linejoin="round" d="M 791,5253 L 941,5253"/>
 <path fill="none" stroke="rgb(179,179,179)" stroke-linejoin="round" d="M 791,4281 L 941,4281"/>
 <path fill="none" stroke="rgb(179,179,179)" stroke-linejoin="round" d="M 791,4281 L 941,4281"/>
 <path fill="none" stroke="rgb(179,179,179)" stroke-linejoin="round" d="M 791,3308 L 941,3308"/>
 <path fill="none" stroke="rgb(179,179,179)" stroke-linejoin="round" d="M 791,3308 L 941,3308"/>
 <path fill="none" stroke="rgb(179,179,179)" stroke-linejoin="round" d="M 791,2336 L 941,2336"/>
 <path fill="none" stroke="rgb(179,179,179)" stroke-linejoin="round" d="M 791,2336 L 941,2336"/>
 <path fill="none" stroke="rgb(179,179,179)" stroke-linejoin="round" d="M 941,8171 L 941,2336"/>
 <path fill="rgb(0,69,134)" stroke="none" d="M 11299,8171 L 11722,8171 11722,4086 11299,4086 11299,8171 Z"/>
 <path fill="rgb(0,69,134)" stroke="none" d="M 10454,8171 L 10876,8171 10876,4086 10454,4086 10454,8171 Z"/>
 <path fill="rgb(0,69,134)" stroke="none" d="M 9608,8171 L 10031,8171 10031,4086 9608,4086 9608,8171 Z"/>
 <path fill="rgb(0,69,134)" stroke="none" d="M 8762,8171 L 9185,8171 9185,4086 8762,4086 8762,8171 Z"/>
 <path fill="rgb(0,69,134)" stroke="none" d="M 7917,8171 L 8339,8171 8339,6128 7917,6128 7917,8171 Z"/>
 <path fill="rgb(0,69,134)" stroke="none" d="M 7072,8171 L 7495,8171 7495,6128 7072,6128 7072,8171 Z"/>
 <path fill="rgb(0,69,134)" stroke="none" d="M 6226,8171 L 6649,8171 6649,6128 6226,6128 6226,8171 Z"/>
 <path fill="rgb(0,69,134)" stroke="none" d="M 5380,8171 L 5803,8171 5803,6128 5380,6128 5380,8171 Z"/>
 <path fill="rgb(0,69,134)" stroke="none" d="M 4535,8171 L 4958,8171 4958,6128 4535,6128 4535,8171 Z"/>
 <path fill="rgb(0,69,134)" stroke="none" d="M 3689,8171 L 4112,8171 4112,7490 3689,7490 3689,8171 Z"/>
 <path fill="rgb(0,69,134)" stroke="none" d="M 2843,8171 L 3266,8171 3266,7490 2843,7490 2843,8171 Z"/>
 <path fill="rgb(0,69,134)" stroke="none" d="M 1998,8171 L 2420,8171 2420,7490 1998,7490 1998,8171 Z"/>
 <path fill="rgb(0,69,134)" stroke="none" d="M 1152,8171 L 1575,8171 1575,7490 1152,7490 1152,8171 Z"/>
 <path fill="rgb(255,66,14)" stroke="none" d="M 11299,4086 L 11722,4086 11722,3795 11299,3795 11299,4086 Z"/>
 <path fill="rgb(255,66,14)" stroke="none" d="M 10454,4086 L 10876,4086 10876,3892 10454,3892 10454,4086 Z"/>
 <path fill="rgb(255,66,14)" stroke="none" d="M 9608,4086 L 10031,4086 10031,3892 9608,3892 9608,4086 Z"/>
 <path fill="rgb(255,66,14)" stroke="none" d="M 8762,4086 L 9185,4086 9185,3892 8762,3892 8762,4086 Z"/>
 <path fill="rgb(255,66,14)" stroke="none" d="M 7917,6128 L 8339,6128 8339,5933 7917,5933 7917,6128 Z"/>
 <path fill="rgb(255,66,14)" stroke="none" d="M 7072,6128 L 7495,6128 7495,5836 7072,5836 7072,6128 Z"/>
 <path fill="rgb(255,66,14)" stroke="none" d="M 6226,6128 L 6649,6128 6649,5836 6226,5836 6226,6128 Z"/>
 <path fill="rgb(255,66,14)" stroke="none" d="M 5380,6128 L 5803,6128 5803,5836 5380,5836 5380,6128 Z"/>
 <path fill="rgb(255,66,14)" stroke="none" d="M 4535,6128 L 4958,6128 4958,5836 4535,5836 4535,6128 Z"/>
 <path fill="rgb(255,66,14)" stroke="none" d="M 3689,7490 L 4112,7490 4112,7198 3689,7198 3689,7490 Z"/>
 <path fill="rgb(255,66,14)" stroke="none" d="M 2843,7490 L 3266,7490 3266,6517 2843,6517 2843,7490 Z"/>
 <path fill="rgb(255,66,14)" stroke="none" d="M 1998,7490 L 2420,7490 2420,7003 1998,7003 1998,7490 Z"/>
 <path fill="rgb(255,66,14)" stroke="none" d="M 1152,7490 L 1575,7490 1575,7003 1152,7003 1152,7490 Z"/>
 <path fill="rgb(255,211,32)" stroke="none" d="M 11299,3795 L 11722,3795 11722,3697 11299,3697 11299,3795 Z"/>
 <path fill="rgb(255,211,32)" stroke="none" d="M 10454,3892 L 10876,3892 10876,3308 10454,3308 10454,3892 Z"/>
 <path fill="rgb(255,211,32)" stroke="none" d="M 9608,3892 L 10031,3892 10031,3795 9608,3795 9608,3892 Z"/>
 <path fill="rgb(255,211,32)" stroke="none" d="M 7917,5933 L 8339,5933 8339,5058 7917,5058 7917,5933 Z"/>
 <path fill="rgb(255,211,32)" stroke="none" d="M 7072,5836 L 7495,5836 7495,5544 7072,5544 7072,5836 Z"/>
 <path fill="rgb(255,211,32)" stroke="none" d="M 3689,7198 L 4112,7198 4112,6906 3689,6906 3689,7198 Z"/>
 <text class="TextShape"><tspan class="TextParagraph" font-family="Liberation Sans, sans-serif" font-size="353px" font-weight="400"><tspan class="TextPosition" x="1270" y="8739"><tspan fill="rgb(0,0,0)" stroke="none">1</tspan></tspan></tspan></text>
 <text class="TextShape"><tspan class="TextParagraph" font-family="Liberation Sans, sans-serif" font-size="353px" font-weight="400"><tspan class="TextPosition" x="2116" y="8739"><tspan fill="rgb(0,0,0)" stroke="none">2</tspan></tspan></tspan></text>
 <text class="TextShape"><tspan class="TextParagraph" font-family="Liberation Sans, sans-serif" font-size="353px" font-weight="400"><tspan class="TextPosition" x="2962" y="8739"><tspan fill="rgb(0,0,0)" stroke="none">3</tspan></tspan></tspan></text>
 <text class="TextShape"><tspan class="TextParagraph" font-family="Liberation Sans, sans-serif" font-size="353px" font-weight="400"><tspan class="TextPosition" x="3807" y="8739"><tspan fill="rgb(0,0,0)" stroke="none">4</tspan></tspan></tspan></text>
 <text class="TextShape"><tspan class="TextParagraph" font-family="Liberation Sans, sans-serif" font-size="353px" font-weight="400"><tspan class="TextPosition" x="4653" y="8739"><tspan fill="rgb(0,0,0)" stroke="none">5</tspan></tspan></tspan></text>
 <text class="TextShape"><tspan class="TextParagraph" font-family="Liberation Sans, sans-serif" font-size="353px" font-weight="400"><tspan class="TextPosition" x="5499" y="8739"><tspan fill="rgb(0,0,0)" stroke="none">6</tspan></tspan></tspan></text>
 <text class="TextShape"><tspan class="TextParagraph" font-family="Liberation Sans, sans-serif" font-size="353px" font-weight="400"><tspan class="TextPosition" x="6345" y="8739"><tspan fill="rgb(0,0,0)" stroke="none">7</tspan></tspan></tspan></text>
 <text class="TextShape"><tspan class="TextParagraph" font-family="Liberation Sans, sans-serif" font-size="353px" font-weight="400"><tspan class="TextPosition" x="7190" y="8739"><tspan fill="rgb(0,0,0)" stroke="none">8</tspan></tspan></tspan></text>
 <text class="TextShape"><tspan class="TextParagraph" font-family="Liberation Sans, sans-serif" font-size="353px" font-weight="400"><tspan class="TextPosition" x="8036" y="8739"><tspan fill="rgb(0,0,0)" stroke="none">9</tspan></tspan></tspan></text>
 <text class="TextShape"><tspan class="TextParagraph" font-family="Liberation Sans, sans-serif" font-size="353px" font-weight="400"><tspan class="TextPosition" x="8790" y="8739"><tspan fill="rgb(0,0,0)" stroke="none">10</tspan></tspan></tspan></text>
 <text class="TextShape"><tspan class="TextParagraph" font-family="Liberation Sans, sans-serif" font-size="353px" font-weight="400"><tspan class="TextPosition" x="9635" y="8739"><tspan fill="rgb(0,0,0)" stroke="none">11</tspan></tspan></tspan></text>
 <text class="TextShape"><tspan class="TextParagraph" font-family="Liberation Sans, sans-serif" font-size="353px" font-weight="400"><tspan class="TextPosition" x="10481" y="8739"><tspan fill="rgb(0,0,0)" stroke="none">12</tspan></tspan></tspan></text>
 <text class="TextShape"><tspan class="TextParagraph" font-family="Liberation Sans, sans-serif" font-size="353px" font-weight="400"><tspan class="TextPosition" x="11327" y="8739"><tspan fill="rgb(0,0,0)" stroke="none">13</tspan></tspan></tspan></text>
 <text class="TextShape"><tspan class="TextParagraph" font-family="Liberation Sans, sans-serif" font-size="353px" font-weight="400"><tspan class="TextPosition" x="506" y="8292"><tspan fill="rgb(0,0,0)" stroke="none">0</tspan></tspan></tspan></text>
 <text class="TextShape"><tspan class="TextParagraph" font-family="Liberation Sans, sans-serif" font-size="353px" font-weight="400"><tspan class="TextPosition" x="321" y="7319"><tspan fill="rgb(0,0,0)" stroke="none">10</tspan></tspan></tspan></text>
 <text class="TextShape"><tspan class="TextParagraph" font-family="Liberation Sans, sans-serif" font-size="353px" font-weight="400"><tspan class="TextPosition" x="321" y="6346"><tspan fill="rgb(0,0,0)" stroke="none">20</tspan></tspan></tspan></text>
 <text class="TextShape"><tspan class="TextParagraph" font-family="Liberation Sans, sans-serif" font-size="353px" font-weight="400"><tspan class="TextPosition" x="321" y="5374"><tspan fill="rgb(0,0,0)" stroke="none">30</tspan></tspan></tspan></text>
 <text class="TextShape"><tspan class="TextParagraph" font-family="Liberation Sans, sans-serif" font-size="353px" font-weight="400"><tspan class="TextPosition" x="321" y="4401"><tspan fill="rgb(0,0,0)" stroke="none">40</tspan></tspan></tspan></text>
 <text class="TextShape"><tspan class="TextParagraph" font-family="Liberation Sans, sans-serif" font-size="353px" font-weight="400"><tspan class="TextPosition" x="321" y="3428"><tspan fill="rgb(0,0,0)" stroke="none">50</tspan></tspan></tspan></text>
 <text class="TextShape"><tspan class="TextParagraph" font-family="Liberation Sans, sans-serif" font-size="353px" font-weight="400"><tspan class="TextPosition" x="321" y="2456"><tspan fill="rgb(0,0,0)" stroke="none">60</tspan></tspan></tspan></text>
 <text class="TextShape"><tspan class="TextParagraph" font-family="Liberation Sans, sans-serif" font-size="459px" font-weight="400"><tspan class="TextPosition" x="3674" y="851"><tspan fill="rgb(0,0,0)" stroke="none">Abstimmungen in Abhängigkeit von n und m</tspan></tspan></tspan></text>
 <text class="TextShape"><tspan class="TextParagraph" font-family="Liberation Sans, sans-serif" font-size="388px" font-weight="400"><tspan class="TextPosition" x="2907" y="1761"><tspan fill="rgb(0,0,0)" stroke="none">Große n verschlechtern, kleine m verbessern das Ergebnis</tspan></tspan></tspan></text>
 <path fill="rgb(0,69,134)" stroke="none" d="M 12476,5102 L 12370,5102 12370,4891 12581,4891 12581,5102 12476,5102 Z"/>
 <path fill="rgb(255,66,14)" stroke="none" d="M 12476,4604 L 12370,4604 12370,4394 12581,4394 12581,4604 12476,4604 Z"/>
 <path fill="rgb(255,211,32)" stroke="none" d="M 12476,4107 L 12370,4107 12370,3896 12581,3896 12581,4107 12476,4107 Z"/>
 <text class="TextShape"><tspan class="TextParagraph" font-family="Liberation Sans, sans-serif" font-size="353px" font-weight="400"><tspan class="TextPosition" x="12681" y="4121"><tspan fill="rgb(0,0,0)" stroke="none">Erfolg (in 10 Fällen)</tspan></tspan></tspan></text>
 <text class="TextShape"><tspan class="TextParagraph" font-family="Liberation Sans, sans-serif" font-size="353px" font-weight="400"><tspan class="TextPosition" x="12681" y="4618"><tspan fill="rgb(0,0,0)" stroke="none">m</tspan></tspan></tspan></text>
 <text class="TextShape"><tspan class="TextParagraph" font-family="Liberation Sans, sans-serif" font-size="353px" font-weight="400"><tspan class="TextPosition" x="12681" y="5116"><tspan fill="rgb(0,0,0)" stroke="none">n</tspan></tspan></tspan></text>
</svg>